<svg width="884" height="1277" viewBox="0 0 884 1277" fill="none" xmlns="http://www.w3.org/2000/svg">
<path fill-rule="evenodd" clip-rule="evenodd" d="M317.294 110.281C394.618 106.476 418.948 141.824 421.205 166.157C418.03 177.37 426.302 220.381 426.302 235.475C426.302 243.179 426.302 260.914 426.302 273.191C423.186 301.688 399.65 328.237 373.295 328.237C346.94 328.237 300.479 349.574 271.358 307.85C257.087 284.404 233.941 262.734 230.583 241.591C230.583 196.738 262.12 112.996 317.294 110.281Z" fill="#FFD19F"/>
<path fill-rule="evenodd" clip-rule="evenodd" d="M771.713 1060.79C756.54 1039.23 724.556 1035.66 704.009 1020.55C693.185 1012.26 681.731 1006.77 673.319 995.614C686.712 979.898 670.149 943.057 666.741 921.782C653.234 866.081 640.742 809.489 624.678 753.854C652.517 762.509 645.264 710.684 641.288 698.7C641.013 697.052 638.971 696.724 637.719 696.204C638.069 693.852 639.033 693.335 636.109 692.686C635.131 678.585 639.125 662.796 631.906 650.34C623.769 636.744 604.319 625.366 588.249 625.178C576.96 580.402 574.891 559.283 521.407 578.263C522.59 573.902 522.958 569.903 520.897 565.497C512.855 541.224 502.748 514.67 493.958 490.072C483.829 461.766 473.354 432.495 459.807 405.297C450.371 388.026 420.852 383.408 400.844 386.268C396.071 377.857 384.039 354.594 368.82 359.972C368.705 352.956 368.596 345.94 368.505 338.923C368.427 332.823 369.069 326.569 366.721 320.778C364.234 314.643 359.169 311.406 353.22 309.058C335.215 303.117 314.529 293.574 295.528 299.479C278.927 307.046 280.861 335.5 272.827 350.968C261.569 334.296 242.37 345.475 238.308 363.355C192.059 381.768 152.307 360.851 149.348 433.128C151.898 446.304 154.066 458.662 152.857 471.967L151.458 472.11C139.621 536.152 135.069 604.801 137.93 676.169C137.357 704.269 127.105 730.496 117.19 755.854C109.897 774.499 102.367 793.78 98.7966 813.561C94.8381 830.036 80.2869 909.264 112.643 882.961C113.883 973.096 194.303 984.636 266.722 964.727C343.601 948.764 430.148 953.353 478.129 876.129C494.406 903.949 500.022 921.126 504.108 950.217C508.592 971.529 515.103 995.733 527.071 1009.83C516.766 1028.36 511.719 1050.93 512.216 1065.64C512.411 1071.41 509.766 1074.09 513.568 1077.68C531.81 1094.91 572.51 1095.1 603.458 1102.77C624.678 1105.47 701.41 1115.79 713.137 1109.06C721.315 1111.35 711.804 1090.09 719.982 1089.64C722.78 1089.66 723.154 1086.1 726.027 1086.23C744.369 1087.07 783.914 1092.45 774.353 1077.68L771.713 1060.79Z" fill="#FFD19F"/>
<path fill-rule="evenodd" clip-rule="evenodd" d="M691.776 1112.89C645.334 1111.13 581.023 1098.09 535.789 1088.29C524.044 1086.08 515.69 1079.95 513.245 1074.75C512.136 1072.39 512.491 1068.13 513.56 1063.16C514.419 1059.18 511.884 1054.73 512.352 1050.44C513.017 1044.35 517.167 1034.41 519.314 1030.78C523.58 1023.55 526.5 1005.13 526.818 1005.32C532.493 1008.78 538.928 1010.28 545.552 1012.13C545.638 1012.15 547.257 1016.26 547.341 1016.29C547.37 1016.37 547.4 1016.45 547.429 1016.53C549.193 1021.44 551.589 1023.52 554.436 1026.06C557.548 1028.84 561.195 1028.79 565.116 1029.29C574.852 1030.53 581.139 1025.73 590.375 1019.34L591.06 1019.32C592.086 1019.3 593.145 1019.3 594.22 1019.3C599.636 1019.32 605.505 1019.37 609.694 1015.97C609.807 1015.88 609.917 1015.79 610.025 1015.69C610.126 1015.79 610.231 1015.88 610.341 1015.97C610.545 1016.14 610.757 1016.29 610.976 1016.42C611.906 1015.87 612.819 1015.32 613.726 1014.76C616.8 1012.9 625.219 1008.19 625.295 1008.32C627.833 1012.6 669.266 988.495 672.86 991.903C677.464 996.267 687.902 1012.88 703.325 1020.05C730.63 1032.74 749.545 1041.93 763.86 1052.65C778.174 1063.37 770.629 1069.92 772.039 1070.52C775.618 1072.05 774.262 1083.17 774.084 1084.81C773.929 1086.27 754.153 1088.73 741.877 1088.39C727.964 1087.99 721.294 1084.77 720.039 1086.65C715.031 1093.48 718.36 1108.3 718.36 1108.3C718.36 1108.3 707.113 1115.95 691.776 1112.89Z" fill="white"/>
<path fill-rule="evenodd" clip-rule="evenodd" d="M292.171 683.163L296.068 684.728C310.391 690.433 326.117 692.757 349.559 693.711L378.327 694.838C393.675 695.428 404.946 695.825 416.219 696.162L419.88 696.269L425.558 696.428L427.452 696.509L428.538 698.061C430.441 700.783 434.093 702.968 439.389 704.635L439.947 704.807C444.061 706.052 448.638 706.894 455.125 707.749L455.561 707.806L460.849 708.479L461.96 708.625L462.803 708.741C463.161 708.791 463.498 708.839 463.819 708.887L464.296 708.959L464.329 708.922C464.396 708.841 464.459 708.746 464.51 708.65L464.557 708.553L464.587 708.477C465.913 704.672 467.308 700.8 468.782 696.819L469.227 695.622C469.227 695.622 468.995 693.635 470.413 693.26C473.381 692.475 482.384 694.184 482.384 694.184C488.448 695.288 494.857 694.372 503.018 695.777L512.683 697.431L530.857 700.535L541.132 702.325L542.078 702.492L542.562 702.872L542.729 702.93L542.919 702.992C542.988 703.013 543.061 703.036 543.139 703.059L543.387 703.132C544.102 703.337 545.064 703.58 546.338 703.878L547.757 704.201C550.018 704.708 555.253 705.87 557.075 706.293L558.177 706.552L559.613 706.897C564.974 708.205 568.733 709.352 571.281 710.581L571.443 710.659L571.596 710.736L571.649 710.758C578.393 713.559 585.156 718.864 597.236 729.925L597.983 730.609L602.754 735.002C613.23 744.631 619.119 749.453 624.519 752.333L624.849 752.507L627.296 753.753L627.538 756.089L627.586 756.525L627.64 756.977C627.885 758.943 628.258 760.996 628.873 763.931L629.015 764.6L629.675 767.696L629.885 768.698L630.031 769.41C630.335 770.914 630.57 772.181 630.768 773.42L630.829 773.809L634.406 790.475C637.406 804.391 640.619 819.157 644.454 836.679L647.368 849.978L661.237 913.195L664.591 928.569L666 935.054L666.224 936.172L666.367 936.852C666.604 937.96 666.898 939.233 667.313 940.969L667.967 943.68L668.68 946.624L669.027 948.073L669.367 949.519C672.586 963.327 673.81 972.273 672.914 980.73C671.913 990.165 667.944 997.098 660.452 1000.66L660.338 1000.72L660.253 1000.76L659.853 1000.98C655.869 1003.06 652.245 1003.79 645.057 1004.48L642.82 1004.69L642.532 1004.72L642.201 1004.76C639.719 1005.08 634.991 1006.03 631.181 1007.05L630.575 1007.21L629.986 1007.38C628.055 1007.93 626.436 1008.49 625.254 1009.01C624.934 1009.15 624.659 1009.29 624.432 1009.41L624.305 1009.48L624.241 1009.89L623.121 1010.81C619.539 1013.77 615.837 1016.09 611.613 1018.1L611.142 1018.32L610.268 1018.73L608.462 1018.63L606.573 1018.54C604.74 1018.45 602.739 1018.37 600.351 1018.29L598.323 1018.22L590.918 1017.98L587.751 1017.87L585.539 1017.78C577.976 1017.47 572.225 1017.07 566.393 1016.4C557.339 1015.37 549.498 1013.78 542.604 1011.4L542.113 1011.23L541.42 1010.98C529.086 1006.48 520.202 999.421 515.32 989.204L515.126 988.792L514.933 988.305L514.785 987.916C512.365 981.454 510.048 970.054 506.952 951.483L504.79 938.387L504.404 936.123C504.166 934.745 503.963 933.62 503.784 932.685C500.014 913.759 491.884 895.431 478.338 872.97C477.561 871.682 476.718 870.818 475.911 870.345L475.823 870.295L476.694 871.87L475.558 873.968C462.126 898.713 440.613 917.06 411.939 930.242C388.989 940.794 362.535 947.701 330.383 952.657L329.407 952.806L328.439 952.935C313.42 954.96 259.717 964.254 254.72 966.137L254.581 966.193L254.164 966.374L253.716 966.453C232.683 970.14 216.25 971.9 201.315 971.654L200.801 971.645C182.693 971.289 167.421 967.861 154.504 960.703C131.871 948.162 116.989 924.413 109.975 887.207L109.765 886.076L109.482 884.533L110.365 883.236C110.995 882.31 111.572 881.509 112.267 880.585L112.761 879.933L114.155 878.119L114.591 877.561C114.692 877.433 114.788 877.312 114.883 877.192L116.708 874.93C120.997 869.595 125.286 864.082 131.005 856.591L133.752 852.987L140.329 844.332C159.536 819.075 170.527 805.936 184.494 792.948L185.407 792.103L187.369 790.446C191.153 787.259 195.105 783.996 200.046 779.966L203.683 777.006L214.374 768.329L217.843 765.499C232.793 753.274 242.349 745.015 251.821 735.905L252.136 735.601C265.213 722.994 275.835 710.68 284.573 697.588L285.092 696.807L285.166 696.709C286.552 694.88 288.362 691.557 290.516 686.821L292.171 683.163ZM567.628 575.767L567.9 575.937L568.188 576.119L568.44 576.35C573.223 580.728 576.646 586.148 579.201 592.846L579.464 593.546L579.637 594.019C581.265 598.511 582.363 602.951 583.995 610.813L584.762 614.514L585.07 615.965C586.223 621.345 587.095 624.701 588.27 628.035L588.383 628.353L588.415 628.463C590.917 637.097 593.493 644.681 596.387 651.728L596.659 652.387L601.173 663.184L592.869 660.069C586.237 657.581 579.076 655.853 570.844 654.633L569.688 654.466L568.81 654.343C563.342 653.595 560.875 651.053 552.104 650.434L550.69 650.335L546.615 650.053L541.24 649.675L541.232 649.631L532.362 649.034L530.837 648.919L530.475 648.889C530.237 648.868 530.048 648.849 529.893 648.83C529.766 648.815 529.654 648.799 529.53 648.776L528.725 648.624L528.415 648.563C528.221 648.523 528.052 648.484 527.904 648.444L527.763 648.404L527.128 648.327C516.298 646.992 507.249 643.454 498.768 640.259L498.25 640.062L497.752 639.87L493.366 638.135L492.157 636.447C492.206 636.347 492.257 636.24 492.308 636.124C492.466 635.765 492.566 635.479 492.619 635.268L492.636 635.192L492.646 635.138L492.582 635.079C492.386 634.906 491.999 634.619 491.334 634.196L491.085 634.039L489.508 633.07L488.993 632.75L488.518 632.448C488.288 632.3 488.069 632.157 487.854 632.013L487.502 631.774L487.191 631.581C481.896 628.297 477.638 624.167 473.363 622.955L473.05 622.868L472.786 622.796L472.608 622.756C470.991 622.403 468.926 622.337 467.444 622.637L467.236 622.682L467.046 622.73C466.788 622.8 466.585 622.874 466.438 622.941L466.369 622.975L466.316 623.003L458.203 627.142C458.138 627.001 458.071 626.902 458.015 626.844L457.995 626.825L457.986 626.819L457.299 626.598C453.823 625.501 450.233 624.645 445.038 623.611L443.421 623.293L437.484 622.152L436.252 621.91C434.103 621.485 432.519 621.152 430.903 620.781L429.722 620.505L420.837 618.647L409.798 616.364L383.024 610.836L370.894 608.297L378.737 603.245L379.807 602.56C383.919 599.942 388.065 597.472 392.24 595.159L393.439 594.499L393.499 594.469C408.474 586.954 423.887 581.364 439.309 577.989C455.533 574.43 471.633 573.35 487.269 574.935L488.208 575.034L488.399 575.074C493.288 576.106 496.769 578.711 500.133 583.167L500.361 583.473L505.091 582.159C507.241 581.555 508.697 581.134 509.428 580.904L509.756 580.797L514.315 579.226C526.325 575.101 533.723 572.987 541.479 571.885C551.931 570.4 560.624 571.451 567.628 575.767Z" fill="#FFCF77"/>
<path fill-rule="evenodd" clip-rule="evenodd" d="M495.161 634.77L493.517 638.076C485.975 653.271 463.981 707.233 463.981 707.233C463.981 707.233 438.365 701.989 433.914 699.703L433.731 699.607C433.731 699.607 441.783 668.463 446.384 656.504C451.78 642.479 461.171 628.293 461.749 626.778L463.1 623.208L465.456 622.966C465.618 622.949 465.779 622.936 465.94 622.925C467.489 622.827 471.788 622.25 478.836 625.276C483.216 627.157 495.161 634.77 495.161 634.77ZM309.885 596.775C301.194 611.58 262.74 541.913 274.298 534.885C285.857 527.858 318.576 581.971 309.885 596.775ZM466.1 543.734C449.518 548.379 432.176 468.424 448.994 463.682C465.811 458.94 482.682 539.089 466.1 543.734ZM151.403 454.346C151.403 454.346 186.678 530.921 175.431 537.047C164.184 543.173 146.493 475.073 146.493 475.073L151.403 454.346ZM296.082 420.653C297.511 421.455 296.225 432.191 294.746 432.618C294.374 432.726 284.75 428.996 278.7 431.884C270.263 435.911 263.77 446.704 254.672 444.646C245.373 442.543 241.283 423.267 239.873 419.048C239.347 417.471 244.7 412.847 245.47 411.464C245.806 410.859 251.589 418.927 261.318 420.653C273.845 422.875 291.377 418.009 296.082 420.653ZM419.747 415.126C420.444 415.255 426.158 422.542 425.935 427.289C425.709 432.102 419.537 434.372 418.771 434.04C418.771 434.04 393.882 440.062 392.391 439.651C391.732 439.469 389.509 436.325 389.637 432.394C389.79 427.705 392.469 422.014 393.865 420.515C396.546 417.638 418.296 414.858 419.747 415.126Z" fill="white"/>
<path fill-rule="evenodd" clip-rule="evenodd" d="M378.123 606.071C376.161 605.851 358.993 602.87 353.898 601.154C352.864 599.089 344.991 568.591 344.991 568.591C340.646 553.166 336.373 537.719 332.099 522.273C326.262 501.174 314.197 455.752 314.096 455.393C314.266 455.476 332.722 462.309 350.784 462.514C368.47 462.715 393.439 454.247 393.534 454.177C393.6 454.405 438.392 577.256 438.173 577.317C433.976 578.477 421.215 582.573 406.364 589.781C394.777 595.405 380.317 604.321 378.123 606.071Z" fill="white"/>
<path fill-rule="evenodd" clip-rule="evenodd" d="M767.16 1081.67C753.637 1084.58 739.728 1083.77 726.027 1084.91C726.47 1083.76 726.841 1082.59 727.132 1081.4C741.289 1079.69 756.137 1078.87 769.635 1074.2C769.953 1075.72 770.192 1077.26 770.286 1078.81C770.299 1079.02 770.271 1081.34 770.603 1080.91C770.192 1081.44 767.774 1081.55 767.16 1081.67M698.84 1046.61C674.137 1038.5 647.932 1031.51 628.945 1012.61C646.511 1006.25 659.155 1014.36 674.254 998.07C674.83 998.192 675.387 998.364 675.93 998.577C692.146 1026.14 726.693 1031.39 751.995 1047.36C762.251 1053.32 781.354 1069.38 756.915 1069.74C747.267 1071.2 737.564 1072.29 727.835 1073.03C727.085 1057.51 711.7 1050.72 698.84 1046.61M716.044 1086.36C711.15 1093.02 702.314 1095.66 694.32 1095.01C688.441 1094.21 683.253 1092.14 677.138 1092.59C630.783 1090.83 585.2 1081.24 539.997 1071.44C499.506 1063.85 530.449 1033.98 527.071 1009.82C532.784 1013.3 539.263 1015.85 545.931 1017.71C554.524 1041.61 578.006 1035.37 594.639 1023.92C610.911 1025.21 613.729 1019.73 627.033 1013.38C641.337 1038.99 673.358 1044.7 698.681 1054.43C714.07 1058.57 726.672 1070.45 716.044 1086.36M715.203 1107.71C702.194 1111.6 688.427 1110.93 675.004 1109.83C630.91 1106.01 587.108 1098.5 544.33 1087.14C534.185 1084.45 514.502 1081.32 513.568 1068.6C522.599 1080.43 538.722 1081.82 552.266 1084.88C596.723 1093.58 642.262 1104.83 687.729 1102.66C697.332 1105.39 707.798 1103.23 715.922 1097.92C715.664 1101.18 715.43 1104.45 715.203 1107.71M576.37 1022.78C566.577 1026.88 557.444 1025.87 549.482 1018.63C558.575 1020.85 567.269 1021.76 576.37 1022.78M519.148 985.915C514.757 974.97 510.279 942.145 508.085 930.699C503.75 908.932 493.781 888.961 482.1 869.592C458.163 829.909 427.031 792.765 422.349 747.914C422.437 745.286 422.536 742.659 422.586 740.031C422.691 734.564 423.189 728.639 422.156 723.271C422.121 723.093 421.885 723.132 421.832 723.271C419.78 728.646 419.153 735.029 418.362 740.733C417.629 746.011 417.028 751.269 416.986 756.603C416.946 761.672 417.275 766.83 418.441 771.777C418.488 771.975 418.536 772.174 418.585 772.373C417.896 774.345 417.145 776.295 416.319 778.215C414.365 782.757 412.185 787.222 409.998 791.656C405.556 800.66 401.086 809.65 396.59 818.628C392.008 827.776 387.446 836.935 382.764 846.033C381.307 848.867 379.938 851.746 378.606 854.646C367.026 872.183 354.432 889.048 340.825 905.067C329.006 917.835 318.479 933.109 302.458 940.848C286.554 948.929 269.197 953.999 252.889 961.074C188.734 972.295 130.213 972.356 114.079 884.157C115.7 882.227 117.177 880.165 118.639 878.363C126.584 868.556 134.201 858.489 141.834 848.442C156.235 829.487 170.769 810.395 188.336 794.207C223.702 764.225 262.699 737.475 288.69 698.161C291.144 694.925 293.153 691.407 294.498 687.619C311.916 694.557 331.537 696.206 350.141 696.936C375.14 697.916 400.149 698.947 425.158 699.616C432.167 709.632 453.895 710.515 464.217 712.195C466.333 712.425 468.102 710.566 468.731 708.764C470.469 703.777 472.274 698.82 474.129 693.883C496.174 698.017 518.321 701.564 540.416 705.459C541.903 706.699 542.495 708.398 543.065 710.529C543.941 713.807 544.784 717.094 545.672 720.369C547.359 726.585 549.254 732.757 551 738.962C551.973 742.42 552.824 746.046 553.966 749.547C573.112 830.731 600.106 920.763 619.499 997.075C620.136 999.898 620.694 1003.58 620.213 1006.64C616.798 1009.29 613.202 1011.45 609.342 1013.25C582.092 1011.35 532.846 1015.26 519.148 985.915M328.791 947.377C320.883 948.393 312.836 949.716 304.722 951.186C311.819 948.01 318.485 944.034 323.879 938.296C362.461 899.35 393.769 852.71 413.983 801.721C416.741 794.866 419.534 787.934 421.909 780.897C422.34 781.549 422.822 782.167 423.362 782.744C432.719 813.564 453.993 841.676 471.778 870.761C443.952 922.021 382.736 939.158 328.791 947.377M109.751 888.341C109.924 888.212 110.101 888.09 110.27 887.955C110.286 888.197 110.309 888.431 110.326 888.672C110.134 888.561 109.942 888.452 109.751 888.341M246.96 416.868C249.391 424.148 251.872 431.42 255.717 438.082C262.01 434.002 267.236 428.383 273.778 424.723C280.533 420.944 287.389 421.965 293.959 425.656C295.682 426.624 294.134 429.269 292.411 428.301C289.093 426.436 285.44 424.938 281.555 425.287C278.518 425.559 275.784 426.96 273.286 428.628C267.28 432.639 262.204 437.807 255.973 441.533C255.248 441.966 254.303 441.683 253.875 440.984C249.426 433.739 246.68 425.702 244.002 417.682C243.375 415.805 246.339 415.007 246.96 416.868M308.094 592.381C309.732 593.469 308.194 596.121 306.546 595.026C288.013 582.718 286.919 558.249 275.96 540.666C274.912 538.986 277.567 537.45 278.608 539.12C289.17 556.065 290.297 580.562 308.094 592.381M372.083 464.622C375.999 463.596 384.643 462.57 389.137 459.619C399.939 496.61 414.643 532.356 429.938 567.698C430.992 570.107 431.932 573.298 433.42 575.825C425.921 577.897 419.07 580.297 413.579 582.716C406.738 585.71 400.044 589.225 393.7 593.277C388.131 596.529 382.812 600.154 377.789 604.161C376.251 603.84 374.714 603.519 373.176 603.193C367.972 602.07 362.701 600.87 357.625 599.16C356.326 595.979 355.902 592.242 354.798 589.108C352.881 582.231 350.964 575.35 349.047 568.474C338.766 531.978 328.888 495.365 318.459 458.91C334.926 466.532 354.455 467.593 372.083 464.622M392.415 433.628C393.826 427.679 396.705 420.339 403.983 420.557C409.56 420.725 414.898 423.992 419.949 426.448C419.713 424.648 418.442 423.113 417.305 421.576C416.13 419.988 418.793 418.462 419.954 420.031C422.038 422.848 423.794 425.57 422.758 429.15C422.458 430.188 421.407 430.456 420.505 430.065C415.587 427.936 410.622 424.629 405.261 423.751C398.754 422.686 396.596 429.288 395.372 434.443C394.917 436.363 391.96 435.545 392.415 433.628M487.591 578.188C494.298 579.608 497.493 585.621 500.862 590.992C509.241 604.341 517.277 617.905 524.992 631.648C527.083 635.37 529.149 639.106 531.188 642.859C531.74 643.783 532.226 644.783 532.727 645.768C520.299 644.661 508.025 642.833 496.322 638.269C498.776 632.72 494.609 631.771 489.937 628.544C484.932 625.415 479.64 622.541 473.894 621.024C470.607 620.157 463.046 619.968 462.157 624.327C461.742 623.148 460.868 622.112 459.549 621.612C450.209 618.543 440.286 617.41 430.721 615.133C414.552 611.73 398.358 608.46 382.183 605.08C386.538 602.306 390.982 599.672 395.506 597.198C409.7 590.075 424.786 584.479 440.281 581.088C455.802 577.683 471.737 576.493 487.591 578.188M451.911 468.914C456.327 491.911 459.977 515.077 466.045 537.721C466.557 539.631 463.597 540.438 463.087 538.536C457.019 515.891 453.37 492.726 448.953 469.728C448.583 467.799 451.539 466.98 451.911 468.914M565.615 578.464C579.305 591.012 578.406 612.04 584.29 628.559C586.78 637.156 589.617 645.661 593.104 653.911C593.181 654.095 593.257 654.278 593.333 654.462C576.882 648.54 559.352 647.724 541.909 646.488C541.776 645.901 541.581 645.36 541.331 644.916C538.53 639.535 535.487 634.262 532.553 628.947C524.752 615.062 516.577 601.391 508.075 587.919C507.544 587.081 507.012 586.219 506.47 585.356C524.44 579.485 549.807 568.468 565.615 578.464M630.209 658.669C631.84 666.372 630.792 674.474 630.352 682.315C622.893 672.417 613.44 663.968 602.383 658.342C601.647 653.39 598.522 649.076 597.081 644.268C594.417 637.483 592.26 630.55 590.317 623.551C608.348 627.304 625.9 640.383 630.209 658.669M462.412 626.313C462.423 626.14 462.427 625.971 462.423 625.798C462.433 625.793 462.443 625.787 462.448 625.782C462.918 625.323 463.44 624.971 464.012 624.721C463.47 625.236 462.938 625.767 462.412 626.313M465.102 692.153C463.772 695.542 462.468 698.942 461.185 702.347C454.83 701.26 441.303 698.697 435.766 695.777C437.74 695.843 439.693 694.817 440.194 692.464C440.414 691.423 440.761 690.447 441.033 689.432C444.371 678.563 447.218 667.475 451.932 657.056C456.543 646.054 462.029 635.364 466.221 624.2C473.327 623.751 484.554 632.562 489.63 636.156C480.576 654.396 472.534 673.106 465.132 692.071C464.994 692.071 464.851 692.071 464.713 692.076C464.841 692.102 464.974 692.127 465.102 692.153M634.079 704.042C634.58 706.753 635.147 709.443 635.531 712.179C636.502 722.874 637.827 734.141 633.696 744.402C631.134 750.687 625.884 745.633 622.402 743.172C616.738 739.221 611.523 734.687 606.324 730.154C590.353 715.151 571.688 702.393 549.286 700.285C525.1 696.926 498.893 692.729 474.794 692.117C481.379 674.663 488.521 657.444 495.428 640.097C508.244 647.274 522.712 649.898 537.487 651.573C537.834 651.746 538.203 651.9 538.601 652.022C539.301 652.165 539.889 652.099 540.36 651.884C560.063 653.967 580.159 654.784 597.49 662.835C604.197 665.949 610.49 670.145 616.186 675.924C622.417 681.886 627.438 689.084 630.807 697.028C631.86 699.478 632.418 702.026 634.079 704.042M661.793 934.834C664.896 950.925 677.779 986.778 658.418 995.701C649.773 1000.49 638.887 997.726 630.321 1002.11C630.102 999.362 629.585 996.641 628.967 994.119C604.005 912.649 580.93 805.996 551.858 724.588C550.944 721.282 550.015 717.98 549.024 714.695C548.197 711.951 547.544 709.023 546.329 706.503C554.416 707.986 562.459 709.73 569.807 713.537C585.318 719.837 607.04 747.195 623.256 755.409C623.9 761.453 625.679 767.472 626.59 773.44C638.097 827.282 650.106 881.023 661.793 934.834M777.298 1069.59C777.022 1068.29 776.298 1067.44 775.386 1066.98C775.525 1039.52 717.733 1030.6 700.22 1013.11C692.208 1007.46 686.38 998.117 677.075 994.615C677.243 994.381 677.417 994.153 677.579 993.915C687.447 977.67 671.864 938.193 669.103 921.24C656.435 868.245 644.15 815.122 629.815 762.545C629.524 761.54 628.982 759.549 628.302 757.349C629.846 757.721 631.323 757.844 632.709 757.665C652.815 753.214 648.301 712.598 643.578 697.88C643.071 696.145 641.89 695.047 640.505 694.531C640.684 693.633 640.521 692.678 639.882 691.765C639.539 691.274 639.012 690.922 638.44 690.744C637.831 676.776 641.323 661.762 633.962 649C625.689 635.043 605.956 623.495 590.077 622.684C587.802 614.454 585.809 606.143 583.61 597.899C581.197 589.266 577.761 579.99 570.538 574.201C561.193 565.901 541.244 568.433 524.696 574.298C525.601 569.974 523.54 566.064 522.278 562.011C518.162 549.881 513.924 537.792 509.599 525.74C494.073 485.104 481.322 442.982 461.901 404.021C453.86 390.814 438.395 384.862 423.548 383.637C416.585 382.937 409.178 382.667 402.148 383.488C401.923 383.06 401.693 382.636 401.458 382.212C395.697 372.242 384.004 353.68 370.549 356.866C369.127 347.386 369.107 337.671 370.278 328.186C370.359 327.512 369.255 327.221 368.979 327.834C360.063 347.804 361.72 372.38 372.599 391.289C373.396 392.601 374.48 393.28 375.605 393.474C377.338 413.327 381.668 432.92 387.011 452.151C386.208 452.181 385.436 452.35 384.791 452.636C367.748 458.869 349.005 459.885 331.266 456.245C326.271 455.193 321.434 453.779 316.573 452.34C315.653 449.154 314.732 445.979 313.807 442.798C311.486 432.752 310.893 423.098 305.004 415.007C304.656 414.41 304.298 413.817 303.955 413.225C299.226 404.659 294.421 396.139 289.58 387.639C288.404 386.245 280.541 370.772 274.422 361.414C275.188 361.394 275.981 361.2 276.753 360.812C281.068 358.663 281.022 352.43 281.809 348.249C284.222 335.256 287.014 322.244 287.781 309.027C287.821 308.353 286.789 308.067 286.487 308.68C280.603 320.329 276.523 332.796 272.167 345.073C272.08 345.318 271.989 345.568 271.891 345.824C267.853 340.739 260.762 339.529 254.586 340.897C244.264 343.588 239.06 351.965 236.059 361.491C206.382 375.637 171.066 361.19 153.055 398.615C148.543 409.491 146.591 421.177 146.648 433.379C147.288 436.152 147.774 438.965 148.213 441.752C149.275 448.496 149.978 455.295 151.175 462.018C152.482 469.364 154.57 476.591 156.872 483.682C161.95 499.328 168.687 514.353 175.25 529.417C176.03 531.208 173.386 532.765 172.601 530.962C168.986 522.666 165.322 514.391 161.895 506.015C156.933 493.89 152.254 481.375 149.375 468.53C136.466 536.87 132.45 606.694 135.229 676.153C134.216 724.309 104.636 766.088 96.1598 812.952C91.9319 831.422 89.2786 850.357 89.6063 869.332C89.022 878.354 92.5515 891.236 102.634 890.887C104.401 891.601 106.163 892.244 107.944 892.858C108.445 893.047 108.924 893.21 109.367 893.344C109.867 893.497 110.327 893.465 110.728 893.315C118.473 969.824 179.922 984.534 250.517 970.865C253.441 970.917 256.314 970.243 259.387 969.38C260.879 968.936 262.362 968.471 263.844 967.981C264.959 967.716 266.078 967.445 267.198 967.164C315.484 957.347 366.096 955.729 411.734 935.621C438.129 924.088 462.969 906.083 477.928 881.15C486.65 896.45 493.925 912.132 497.58 928.719C500.192 940.68 504.671 973.658 508.034 985.456C509.604 991.326 512.313 996.268 515.851 1000.43C515.842 1000.45 515.833 1000.46 515.823 1000.48C518.857 1002.18 521.552 1004.43 523.71 1007.12C521.412 1026.59 501.546 1045.31 511.704 1065.64C506.912 1076.65 518.676 1085.62 528.357 1087.89C543.198 1092.63 558.514 1096.19 573.714 1099.57C603.807 1105.18 697.99 1125.89 720.534 1109.77C720.211 1106.33 724.448 1095.15 719.447 1094.98C721.665 1092.8 723.503 1090.24 724.895 1087.47C738.692 1091.95 754.026 1090.35 768.075 1088.69C779.436 1088.94 779.02 1077.88 777.298 1069.59" fill="black"/>
<path fill-rule="evenodd" clip-rule="evenodd" d="M246.532 228.352C251.608 228.076 255.414 232.222 258.088 236.015C260.597 239.573 254.159 243.33 252.282 239.409C251.608 238.011 250.843 236.53 249.818 235.305C249.645 235.546 249.493 235.796 249.342 236.052L249.19 236.311C249.078 236.5 248.961 236.694 248.864 236.893C248.874 236.928 248.721 237.398 248.716 237.419C248.297 238.69 247.384 239.506 246.14 239.946C244.532 240.507 243.012 239.297 242.497 237.878C241.676 235.611 243.584 233.636 245.568 232.737C243.619 232.421 241.701 233.084 240.293 234.585C240.1 234.795 239.773 234.626 239.763 234.366C239.599 230.808 243.318 228.526 246.532 228.352Z" fill="#231F20"/>
<path fill-rule="evenodd" clip-rule="evenodd" d="M381.142 286.135C377.376 287.224 373.333 287.322 369.495 286.197C366.013 285.177 362.438 282.931 359.875 279.96C357.598 277.32 356.124 274.113 356.182 270.689C356.189 270.297 356.329 269.971 356.544 269.718C356.776 269.445 357.1 269.258 357.447 269.176C357.804 269.093 358.181 269.122 358.502 269.268C358.793 269.4 359.042 269.624 359.198 269.951C359.592 270.468 359.984 270.977 360.378 271.472C363.544 275.376 366.611 278.294 371.372 279.341C373.956 279.909 376.536 279.657 378.904 278.79C381.438 277.863 383.729 276.232 385.524 274.145C386.335 273.202 387.293 272.817 388.23 272.81C389.291 272.803 390.34 273.295 391.13 274.082C391.907 274.856 392.427 275.908 392.474 277.007C392.516 277.973 392.2 278.981 391.361 279.881C388.598 282.844 385.017 285.015 381.142 286.135ZM381.026 237.233C384.886 239.576 390.769 245.04 386.616 250.85C381.727 255.972 374.689 250.099 371.22 247.443C368.004 245.384 364.391 250.679 367.375 253.082C392.437 271.611 402.608 237.846 382.978 234.478C380.817 234.107 380.014 236.508 381.026 237.233ZM344.913 226.923C343.672 226.13 342.212 225.858 340.595 226.593C339.331 227.167 337.113 229.081 335.57 231.596C334.515 233.317 333.766 235.336 333.922 237.439C333.958 237.928 333.778 238.288 333.493 238.554C333.267 238.764 332.942 238.919 332.56 238.967C332.236 239.008 331.873 238.971 331.578 238.879C331.016 238.704 330.719 238.341 330.607 238.044C329.527 235.179 329.992 231.982 331.203 229.097C332.837 225.205 335.805 221.944 337.749 220.893C341.076 219.093 345.001 219.01 348.332 220.844C351.168 222.404 352.942 224.923 354.705 227.491C355.08 228.037 355.452 228.579 355.837 229.111C356.608 230.178 356.685 231.236 356.386 232.143C356.055 233.148 355.212 233.996 354.158 234.44C353.183 234.85 352.052 234.908 351.052 234.486C350.206 234.13 349.43 233.436 348.939 232.258C348.112 230.275 346.735 228.086 344.913 226.923V226.923ZM407.93 231.336C407.08 231.778 406.416 231.911 405.473 231.629C404.952 231.473 404.436 231.173 404.033 230.77C403.633 230.371 403.345 229.875 403.233 229.324C402.957 227.965 402.212 226.693 401.151 225.863C400.244 225.155 399.099 224.779 397.829 224.991C396.459 225.219 395.153 226.097 394.254 227.132C393.954 227.478 393.718 227.871 393.481 228.261C393.038 228.992 392.608 229.671 391.997 230.207C391.765 230.411 391.416 230.553 391.078 230.553C390.941 230.553 390.801 230.53 390.668 230.489C389.304 229.122 389.042 228.085 389.086 227.056C389.132 225.978 389.558 224.886 390.246 223.867C391.86 221.477 394.925 219.517 396.994 219.073C399.826 218.465 402.639 219.195 404.894 220.775C407.215 222.4 408.935 224.924 409.471 227.768C409.6 228.453 409.545 229.192 409.284 229.833C409.028 230.46 408.584 230.996 407.93 231.336ZM351.16 201.44C349.46 203.094 347.448 203.35 345.413 203.578C344.282 203.705 343.379 203.808 342.491 204.009C340.049 204.559 337.635 205.388 335.433 206.582C333.131 207.83 330.623 209.335 328.818 211.263C328.389 211.722 327.984 212.204 327.579 212.686C327.21 213.126 326.854 213.55 326.479 213.958C326.048 214.427 325.639 214.919 325.232 215.409C324.981 215.823 324.931 215.925 324.88 216.031C324.804 216.19 324.715 216.368 324.614 216.559C324.475 216.821 324.313 217.108 324.143 217.367C323.86 217.842 323.708 217.973 323.577 218.032C323.359 218.128 323.152 218.176 322.952 218.15C322.764 218.126 322.587 218.036 322.412 217.888C321.539 217.152 321.282 215.944 321.308 214.661C321.348 212.715 322.067 210.56 322.73 209.235C324.271 206.157 326.408 202.957 328.978 200.659C331.911 198.037 335.119 196.052 338.804 194.684C341.094 193.833 343.745 193.053 346.24 193.151C348.036 193.222 349.75 193.755 351.166 195.086C352.035 195.904 352.453 197.066 352.453 198.227C352.453 199.412 352.019 200.604 351.16 201.44ZM411.386 216.584C411.278 216.761 411.129 216.883 410.962 216.956C410.788 217.033 410.593 217.055 410.406 217.023C410.22 216.992 410.043 216.908 409.902 216.779C409.768 216.656 409.665 216.492 409.62 216.291C408.491 211.342 406.3 207.659 401.622 205.285C399.322 204.116 396.676 203.374 394.171 202.782C393.444 202.61 392.675 202.499 391.9 202.386C389.473 202.032 387.028 201.627 385.446 199.668C384.492 198.487 384.092 196.978 384.318 195.598C384.531 194.298 385.292 193.107 386.674 192.392C390.116 190.615 394.393 192.359 397.869 193.845C398.127 193.955 398.38 194.063 398.628 194.167C402.027 195.6 405.127 197.491 407.675 200.196C409.697 202.341 411.57 205.513 412.325 208.776C412.953 211.491 412.805 214.262 411.386 216.584Z" fill="black"/>
<path fill-rule="evenodd" clip-rule="evenodd" d="M446.709 322.508C440.57 293.674 436.633 264.47 433.108 235.227C431.403 221.064 430.042 206.863 428.465 192.688C426.991 179.483 425.274 166.234 421.831 153.379C418.63 141.433 413.949 129.606 407.051 119.292C400.584 109.623 392.454 101.338 383.12 94.42C364.676 80.7517 341.089 73.4787 318.147 75.8905C314.682 76.2565 311.249 76.8433 307.854 77.6293C308.936 77.3117 310.029 77.0151 311.131 76.7572C311.486 76.6716 311.328 76.193 310.98 76.2248C217.646 84.7095 195.691 247.119 193.695 279.866C193.539 282.413 193.416 284.953 193.324 287.5C192.624 293.18 192.103 298.875 191.855 304.587C191.576 311.176 189.201 331.864 189.808 338.431C190.432 345.165 189.044 425.003 191.853 431.194C193.574 435.005 280.469 390.842 281.298 386.341C282.976 377.254 281.824 319.827 281.298 310.584C281.05 306.153 280.592 301.755 279.645 297.416C279.387 296.232 279.113 294.008 278.419 292.248C285.741 278.327 293.796 264.803 302.087 251.437C319.342 223.605 337.688 196.289 351.79 166.648C358.86 151.796 365.827 136.023 369.163 119.749L369.701 119.856C369.636 120.05 369.679 120.292 369.873 120.427C385.202 131.027 395.446 147.091 402.086 164.291C409.817 184.317 413.567 205.942 413.029 227.4C412.174 261.498 399.256 303.639 362.707 314.417C354.367 316.877 345.361 317.571 336.817 315.773C332.787 314.923 328.838 313.614 325.2 311.676C321.165 309.528 317.851 306.487 314.069 303.984C310.609 301.696 306.525 306.158 308.516 309.545C312.912 317.027 322.37 321.603 330.495 323.854C339.162 326.26 348.304 326.374 357.133 324.845C357.805 324.731 358.472 324.602 359.134 324.462C359.285 326.68 360.237 328.888 361.787 330.68C362.481 331.488 363.336 332.187 364.294 332.774C364.418 334.939 367.608 356.305 369.873 356.78C381.973 359.299 441.734 425.445 453.818 421.843C457.062 420.875 448.895 332.774 446.709 322.508Z" fill="black"/>
</svg>
